<svg width="19" height="19" viewBox="0 0 19 19" fill="none" xmlns="http://www.w3.org/2000/svg">
<path fill-rule="evenodd" clip-rule="evenodd" d="M9.5 0.5C4.52944 0.5 0.5 4.52944 0.5 9.5C0.5 14.4706 4.52944 18.5 9.5 18.5C14.4706 18.5 18.5 14.4706 18.5 9.5C18.5 7.11305 17.5518 4.82387 15.864 3.13604C14.1761 1.44821 11.8869 0.5 9.5 0.5ZM1.5 9.5C1.5 5.08172 5.08172 1.5 9.5 1.5C11.6217 1.5 13.6566 2.34285 15.1569 3.84315C16.6571 5.34344 17.5 7.37827 17.5 9.5C17.5 13.9183 13.9183 17.5 9.5 17.5C5.08172 17.5 1.5 13.9183 1.5 9.5ZM12.4595 12.4594C12.5919 12.3271 12.5924 12.1126 12.4606 11.9796L9.84016 9.35912V5.42002C9.84016 5.23224 9.68793 5.08002 9.50016 5.08002C9.31238 5.08002 9.16016 5.23224 9.16016 5.42002L9.16036 9.5011C9.16064 9.5892 9.19537 9.67369 9.25712 9.73652L9.25971 9.7404L11.9797 12.4604C12.1126 12.5922 12.3271 12.5918 12.4595 12.4594Z" fill="#333333"/>
</svg>
