<svg width="30" height="28" viewBox="0 0 30 28" fill="none" xmlns="http://www.w3.org/2000/svg">
<path fill-rule="evenodd" clip-rule="evenodd" d="M1.8175 0H3.02917C4.03296 0 4.84668 0.813725 4.84668 1.8175V26.0509C4.84668 27.0547 4.03296 27.8684 3.02917 27.8684H1.8175C0.813725 27.8684 0 27.0547 0 26.0509V1.8175C0 0.813725 0.813725 0 1.8175 0ZM27.2623 0H9.08723C8.08345 0 7.26972 0.813725 7.26972 1.8175V26.0509C7.26972 27.0547 8.08345 27.8684 9.08723 27.8684H27.2623C28.2661 27.8684 29.0798 27.0547 29.0798 26.0509V1.8175C29.0798 0.813725 28.2661 0 27.2623 0ZM27.8691 26.0509C27.8687 26.3854 27.5977 26.6564 27.2633 26.6568H9.08826C8.75383 26.6564 8.48282 26.3854 8.48242 26.0509V1.81754C8.48282 1.48311 8.75383 1.2121 9.08826 1.2117H27.2633C27.5977 1.2121 27.8687 1.48311 27.8691 1.81754V26.0509ZM24.8387 8.48169C25.1733 8.48169 25.4446 8.21045 25.4446 7.87585C25.4446 7.54126 25.1733 7.27002 24.8387 7.27002H17.5687C17.2341 7.27002 16.9629 7.54126 16.9629 7.87585C16.9629 8.21045 17.2341 8.48169 17.5687 8.48169H24.8387ZM15.5738 6.23588C15.8103 6.47246 15.8103 6.85595 15.5738 7.09253L13.1505 9.51587C12.9139 9.75238 12.5304 9.75238 12.2938 9.51587L11.0822 8.3042C10.8526 8.06649 10.8559 7.68862 11.0896 7.45493C11.3232 7.22124 11.7011 7.21796 11.9388 7.44755L12.7222 8.2309L14.7172 6.23588C14.9538 5.99938 15.3373 5.99938 15.5738 6.23588ZM24.8387 14.54C25.1733 14.54 25.4446 14.2688 25.4446 13.9342C25.4446 13.5996 25.1733 13.3284 24.8387 13.3284H17.5687C17.2341 13.3284 16.9629 13.5996 16.9629 13.9342C16.9629 14.2688 17.2341 14.54 17.5687 14.54H24.8387ZM15.5738 12.2942C15.8103 12.5308 15.8103 12.9143 15.5738 13.1509L13.1505 15.5742C12.9139 15.8107 12.5304 15.8107 12.2938 15.5742L11.0822 14.3625C10.8526 14.1248 10.8559 13.7469 11.0896 13.5133C11.3232 13.2796 11.7011 13.2763 11.9388 13.5059L12.7222 14.2892L14.7172 12.2942C14.9538 12.0577 15.3373 12.0577 15.5738 12.2942ZM24.8387 20.5984C25.1733 20.5984 25.4446 20.3271 25.4446 19.9925C25.4446 19.6579 25.1733 19.3867 24.8387 19.3867H17.5687C17.2341 19.3867 16.9629 19.6579 16.9629 19.9925C16.9629 20.3271 17.2341 20.5984 17.5687 20.5984H24.8387ZM15.5738 18.3526C15.8103 18.5891 15.8103 18.9726 15.5738 19.2092L13.1505 21.6325C12.9139 21.869 12.5304 21.869 12.2938 21.6325L11.0822 20.4209C10.8526 20.1832 10.8559 19.8053 11.0896 19.5716C11.3232 19.3379 11.7011 19.3346 11.9388 19.5642L12.7222 20.3476L14.7172 18.3526C14.9538 18.116 15.3373 18.116 15.5738 18.3526ZM3.63525 26.0509C3.63485 26.3853 3.36385 26.6563 3.02942 26.6567H1.81775C1.48332 26.6563 1.21231 26.3853 1.21191 26.0509V6.05832H3.63525V26.0509ZM1.21191 4.84671H3.63525V1.81754C3.63485 1.48311 3.36385 1.2121 3.02942 1.2117H1.81775C1.48332 1.2121 1.21231 1.48311 1.21191 1.81754V4.84671Z" fill="#999999"/>
</svg>
